<?xml version="1.0" encoding="UTF-8" standalone="no"?>
<!-- Created with Inkscape (http://www.inkscape.org/) -->

<svg
   xmlns:dc="http://purl.org/dc/elements/1.1/"
   xmlns:cc="http://creativecommons.org/ns#"
   xmlns:rdf="http://www.w3.org/1999/02/22-rdf-syntax-ns#"
   xmlns:svg="http://www.w3.org/2000/svg"
   xmlns="http://www.w3.org/2000/svg"
   xmlns:sodipodi="http://sodipodi.sourceforge.net/DTD/sodipodi-0.dtd"
   xmlns:inkscape="http://www.inkscape.org/namespaces/inkscape"
   width="25"
   height="25"
   id="svg2"
   version="1.1"
   inkscape:version="0.47 r22583"
   sodipodi:docname="menu_icon_toggle_checked.svg"
   inkscape:export-filename="/home/gomar/git/nookdevs/nookNotes/res/drawable/menu_icon_toggle_checked_pressed.png"
   inkscape:export-xdpi="90"
   inkscape:export-ydpi="90">
  <defs
     id="defs4">
    <inkscape:perspective
       sodipodi:type="inkscape:persp3d"
       inkscape:vp_x="0 : 526.18109 : 1"
       inkscape:vp_y="0 : 1000 : 0"
       inkscape:vp_z="744.09448 : 526.18109 : 1"
       inkscape:persp3d-origin="372.04724 : 350.78739 : 1"
       id="perspective10" />
    <inkscape:perspective
       id="perspective2836"
       inkscape:persp3d-origin="0.5 : 0.33333333 : 1"
       inkscape:vp_z="1 : 0.5 : 1"
       inkscape:vp_y="0 : 1000 : 0"
       inkscape:vp_x="0 : 0.5 : 1"
       sodipodi:type="inkscape:persp3d" />
    <inkscape:perspective
       id="perspective2839"
       inkscape:persp3d-origin="0.5 : 0.33333333 : 1"
       inkscape:vp_z="1 : 0.5 : 1"
       inkscape:vp_y="0 : 1000 : 0"
       inkscape:vp_x="0 : 0.5 : 1"
       sodipodi:type="inkscape:persp3d" />
    <inkscape:perspective
       id="perspective2892"
       inkscape:persp3d-origin="0.5 : 0.33333333 : 1"
       inkscape:vp_z="1 : 0.5 : 1"
       inkscape:vp_y="0 : 1000 : 0"
       inkscape:vp_x="0 : 0.5 : 1"
       sodipodi:type="inkscape:persp3d" />
  </defs>
  <sodipodi:namedview
     id="base"
     pagecolor="#ffffff"
     bordercolor="#666666"
     borderopacity="1.0"
     inkscape:pageopacity="0.0"
     inkscape:pageshadow="2"
     inkscape:zoom="22.485996"
     inkscape:cx="2.4568428"
     inkscape:cy="13.685178"
     inkscape:document-units="px"
     inkscape:current-layer="layer2"
     showgrid="true"
     inkscape:window-width="1860"
     inkscape:window-height="1057"
     inkscape:window-x="60"
     inkscape:window-y="0"
     inkscape:window-maximized="1"
     inkscape:snap-bbox="true"
     inkscape:snap-nodes="false">
    <inkscape:grid
       type="xygrid"
       id="grid2816"
       empspacing="5"
       visible="true"
       enabled="true"
       snapvisiblegridlinesonly="true" />
  </sodipodi:namedview>
  <metadata
     id="metadata7">
    <rdf:RDF>
      <cc:Work
         rdf:about="">
        <dc:format>image/svg+xml</dc:format>
        <dc:type
           rdf:resource="http://purl.org/dc/dcmitype/StillImage" />
        <dc:title></dc:title>
      </cc:Work>
    </rdf:RDF>
  </metadata>
  <g
     inkscape:label="normal"
     inkscape:groupmode="layer"
     id="layer1"
     transform="translate(0,-1027.3622)"
     style="display:inline">
    <rect
       style="fill:none;stroke:#4d4d4d;stroke-width:1;stroke-linecap:round;stroke-linejoin:miter;stroke-miterlimit:4;stroke-opacity:1;stroke-dasharray:none;stroke-dashoffset:0"
       id="rect2819"
       width="18"
       height="18.139364"
       x="3.5"
       y="1030.8622" />
    <path
       style="font-size:medium;font-style:normal;font-variant:normal;font-weight:normal;font-stretch:normal;text-indent:0;text-align:start;text-decoration:none;line-height:normal;letter-spacing:normal;word-spacing:normal;text-transform:none;direction:ltr;block-progression:tb;writing-mode:lr-tb;text-anchor:start;color:#000000;fill:#394594;fill-opacity:1;stroke:none;stroke-width:3;marker:none;visibility:visible;display:inline;overflow:visible;enable-background:accumulate;font-family:Bitstream Vera Sans;-inkscape-font-specification:Bitstream Vera Sans"
       d="M 12.502469,20.141111 A 1.50015,1.50015 0 0 0 13.875,19.1066 c 1.809523,-5.4426 3.879036,-10.6673 7,-15.2813 A 1.50015,1.50015 0 0 0 19.46875,1.4816 l 0,0 0,0 a 1.50015,1.50015 0 0 0 -1.0625,0.6874 c -2.584299,3.8206603 -4.382659,7.973157 -5.940169,12.206298"
       id="path2847"
       transform="translate(0,1027.3622)" />
    <path
       style="font-size:medium;font-style:normal;font-variant:normal;font-weight:normal;font-stretch:normal;text-indent:0;text-align:start;text-decoration:none;line-height:normal;letter-spacing:normal;word-spacing:normal;text-transform:none;direction:ltr;block-progression:tb;writing-mode:lr-tb;text-anchor:start;opacity:0.33000004;color:#000000;fill:#394594;fill-opacity:1;stroke:none;stroke-width:3;marker:none;visibility:visible;display:inline;overflow:visible;enable-background:accumulate;font-family:Bitstream Vera Sans;-inkscape-font-specification:Bitstream Vera Sans"
       d="M 12.466081,14.375298 C 12.319147,14.774652 12.174355,15.174722 12.03125,15.5753 10.928991,14.0964 9.7431874,12.5868 8,11.044 7.4109514,10.520401 6.3985992,10.579952 5.8750005,11.169 5.3514017,11.758049 5.4109514,12.770401 6,13.294 c 2.2715968,2.0105 3.573754,4.0374 5.25,6.25 0.536098,0.605354 1.052287,0.546475 1.252469,0.597111"
       id="path3593"
       transform="translate(0,1027.3622)"
       sodipodi:nodetypes="ccssscc" />
    <path
       style="fill:none;stroke:#000000;stroke-width:0.99999994px;stroke-linecap:butt;stroke-linejoin:miter;stroke-opacity:1"
       d="m 12.5,1027.883 0,23.9687"
       id="path2816" />
  </g>
  <g
     inkscape:groupmode="layer"
     id="layer2"
     inkscape:label="pressed"
     style="display:none">
    <path
       style="font-size:medium;font-style:normal;font-variant:normal;font-weight:normal;font-stretch:normal;text-indent:0;text-align:start;text-decoration:none;line-height:normal;letter-spacing:normal;word-spacing:normal;text-transform:none;direction:ltr;block-progression:tb;writing-mode:lr-tb;text-anchor:start;color:#000000;fill:#ffffff;fill-opacity:1;stroke:none;stroke-width:1;marker:none;visibility:visible;display:inline;overflow:visible;enable-background:accumulate;font-family:Bitstream Vera Sans;-inkscape-font-specification:Bitstream Vera Sans"
       d="M 12,0.53125 12,3 3.5,3 3,3 l 0,0.5 0,18.125 0,0.5 0.5,0 8.5,0 0,2.375 1,0 0,-2.375 8.5,0 0.5,0 0,-0.5 L 22,3.5 22,3 21.5,3 21.15625,3 a 1.50015,1.50015 0 0 0 -1.6875,-1.53125 1.50015,1.50015 0 0 0 -1.0625,0.6875 C 18.221405,2.4295274 18.052003,2.7234192 17.875,3 L 13,3 l 0,-2.46875 -1,0 z M 4,4 l 8,0 0,11.53125 c -1.09486,-1.467652 -2.2706403,-2.969438 -4,-4.5 -0.5890486,-0.523599 -1.6014013,-0.464048 -2.125,0.125 -0.5235988,0.589049 -0.4640486,1.601401 0.125,2.125 2.2715968,2.0105 3.573754,4.0374 5.25,6.25 0.268049,0.302677 0.528918,0.463971 0.75,0.53125 l 0,1.0625 -8,0 L 4,4 z m 9,0 4.25,0 C 15.523336,6.8775219 14.187019,9.9065234 13,13 l 0,-9 z m 7.75,0 0.25,0 0,17.125 -8,0 0,-1.09375 a 1.50015,1.50015 0 0 0 0.875,-0.9375 C 15.660336,13.723898 17.698345,8.5683659 20.75,4 z"
       id="rect2819-4" />
  </g>
</svg>
