<?xml version="1.0" encoding="UTF-8" standalone="no"?>
<!-- Created with Inkscape (http://www.inkscape.org/) -->

<svg
   xmlns:dc="http://purl.org/dc/elements/1.1/"
   xmlns:cc="http://creativecommons.org/ns#"
   xmlns:rdf="http://www.w3.org/1999/02/22-rdf-syntax-ns#"
   xmlns:svg="http://www.w3.org/2000/svg"
   xmlns="http://www.w3.org/2000/svg"
   xmlns:sodipodi="http://sodipodi.sourceforge.net/DTD/sodipodi-0.dtd"
   xmlns:inkscape="http://www.inkscape.org/namespaces/inkscape"
   width="25"
   height="25"
   id="svg2"
   version="1.1"
   inkscape:version="0.47 r22583"
   sodipodi:docname="menu_icon_help.svg"
   inkscape:export-filename="/home/gomar/git/nookdevs/nookNotes/res/drawable/menu_icon_help_pressed.png"
   inkscape:export-xdpi="90"
   inkscape:export-ydpi="90">
  <defs
     id="defs4">
    <inkscape:perspective
       sodipodi:type="inkscape:persp3d"
       inkscape:vp_x="0 : 526.18109 : 1"
       inkscape:vp_y="0 : 1000 : 0"
       inkscape:vp_z="744.09448 : 526.18109 : 1"
       inkscape:persp3d-origin="372.04724 : 350.78739 : 1"
       id="perspective10" />
    <inkscape:perspective
       id="perspective2836"
       inkscape:persp3d-origin="0.5 : 0.33333333 : 1"
       inkscape:vp_z="1 : 0.5 : 1"
       inkscape:vp_y="0 : 1000 : 0"
       inkscape:vp_x="0 : 0.5 : 1"
       sodipodi:type="inkscape:persp3d" />
    <inkscape:perspective
       id="perspective2839"
       inkscape:persp3d-origin="0.5 : 0.33333333 : 1"
       inkscape:vp_z="1 : 0.5 : 1"
       inkscape:vp_y="0 : 1000 : 0"
       inkscape:vp_x="0 : 0.5 : 1"
       sodipodi:type="inkscape:persp3d" />
    <inkscape:perspective
       id="perspective2827"
       inkscape:persp3d-origin="0.5 : 0.33333333 : 1"
       inkscape:vp_z="1 : 0.5 : 1"
       inkscape:vp_y="0 : 1000 : 0"
       inkscape:vp_x="0 : 0.5 : 1"
       sodipodi:type="inkscape:persp3d" />
  </defs>
  <sodipodi:namedview
     id="base"
     pagecolor="#ffffff"
     bordercolor="#666666"
     borderopacity="1.0"
     inkscape:pageopacity="0.0"
     inkscape:pageshadow="2"
     inkscape:zoom="22.485996"
     inkscape:cx="12.018349"
     inkscape:cy="13.596234"
     inkscape:document-units="px"
     inkscape:current-layer="layer2"
     showgrid="true"
     inkscape:window-width="1860"
     inkscape:window-height="1057"
     inkscape:window-x="60"
     inkscape:window-y="0"
     inkscape:window-maximized="1"
     inkscape:snap-bbox="true"
     inkscape:snap-nodes="false">
    <inkscape:grid
       type="xygrid"
       id="grid2816"
       empspacing="5"
       visible="true"
       enabled="true"
       snapvisiblegridlinesonly="true" />
  </sodipodi:namedview>
  <metadata
     id="metadata7">
    <rdf:RDF>
      <cc:Work
         rdf:about="">
        <dc:format>image/svg+xml</dc:format>
        <dc:type
           rdf:resource="http://purl.org/dc/dcmitype/StillImage" />
        <dc:title></dc:title>
      </cc:Work>
    </rdf:RDF>
  </metadata>
  <g
     inkscape:label="normal"
     inkscape:groupmode="layer"
     id="layer1"
     transform="translate(0,-1027.3622)"
     style="display:inline">
    <path
       style="font-size:29.02025986px;font-style:normal;font-variant:normal;font-weight:normal;font-stretch:normal;text-align:start;line-height:100%;writing-mode:lr-tb;text-anchor:start;fill:#999999;fill-opacity:1;stroke:none;font-family:Segoe;-inkscape-font-specification:Segoe"
       d="m 11.990136,1029.3625 c -2.0052746,0 -3.8680404,0.4065 -5.6099103,1.29 a 0.42909779,0.42909779 0 0 0 -0.2399961,0.39 l 0,2.79 a 0.42909779,0.42909779 0 0 0 0.7199885,0.33 c 1.3334915,-1.1884 2.8184898,-1.77 4.5899259,-1.77 1.045384,0 1.864576,0.2575 2.489961,0.75 0.648253,0.4946 0.929974,1.0092 0.929985,1.6799 -1.1e-5,0.648 -0.181857,1.187 -0.569991,1.7099 a 0.42909779,0.42909779 0 0 0 -0.03,0.029 c -0.372035,0.515 -1.091404,1.1388 -2.159966,1.8301 -1.134709,0.7356 -1.941051,1.4499 -2.429961,2.1898 -0.4852755,0.7244 -0.7199946,1.5763 -0.7199885,2.52 l 0,1.11 a 0.42909779,0.42909779 0 0 0 0.4199934,0.42 l 3.0599511,0 a 0.42909779,0.42909779 0 0 0 0.419993,-0.42 l 0,-1.05 c -8e-6,-0.7044 0.180966,-1.1743 0.479992,-1.4999 0.337499,-0.3677 1.051207,-0.9405 2.099967,-1.6501 1.180285,-0.7997 2.05667,-1.5981 2.609958,-2.4598 0.553228,-0.8618 0.809972,-1.8642 0.809987,-2.94 -1.5e-5,-1.5413 -0.646903,-2.8458 -1.919969,-3.8099 -1.26722,-0.9786 -2.950528,-1.4401 -4.949921,-1.4401 z m -1.079983,16.7998 c -0.551859,0 -1.0868426,0.1869 -1.4999757,0.6 -0.4130911,0.4132 -0.5999951,0.948 -0.5999903,1.4999 -4.8e-6,0.5445 0.1861163,1.0673 0.5999903,1.47 0.4006647,0.3898 0.9239527,0.63 1.4999757,0.63 0.569218,0 1.079532,-0.2396 1.469977,-0.63 0.404699,-0.3939 0.629981,-0.9066 0.62999,-1.47 -9e-6,-0.5705 -0.225953,-1.0958 -0.62999,-1.4999 -0.402669,-0.4139 -0.925408,-0.6 -1.469977,-0.6 z"
       id="path2816" />
  </g>
  <g
     inkscape:groupmode="layer"
     id="layer2"
     inkscape:label="pressed"
     style="display:none">
    <path
       style="font-size:29.02025986px;font-style:normal;font-variant:normal;font-weight:normal;font-stretch:normal;text-align:start;line-height:100%;writing-mode:lr-tb;text-anchor:start;fill:#ffffff;fill-opacity:1;stroke:none;font-family:Segoe;-inkscape-font-specification:Segoe"
       d="m 11.990136,2.0003 c -2.0052746,0 -3.8680404,0.4065 -5.6099103,1.29 a 0.42909779,0.42909779 0 0 0 -0.2399961,0.39 l 0,2.79 a 0.42909779,0.42909779 0 0 0 0.7199885,0.33 c 1.3334915,-1.1884 2.8184898,-1.77 4.5899259,-1.77 1.045384,0 1.864576,0.2575 2.489961,0.75 0.648253,0.4946 0.929974,1.0092 0.929985,1.6799 -1.1e-5,0.648 -0.181857,1.187 -0.569991,1.7099 a 0.42909779,0.42909779 0 0 0 -0.03,0.029 c -0.372035,0.515 -1.091404,1.1388 -2.159966,1.8301 -1.134709,0.7356 -1.941051,1.4499 -2.429961,2.1898 -0.4852755,0.7244 -0.7199946,1.5763 -0.7199885,2.52 l 0,1.11 a 0.42909779,0.42909779 0 0 0 0.4199934,0.42 l 3.0599511,0 a 0.42909779,0.42909779 0 0 0 0.419993,-0.42 l 0,-1.05 c -8e-6,-0.7044 0.180966,-1.1743 0.479992,-1.4999 0.337499,-0.3677 1.051207,-0.9405 2.099967,-1.6501 1.180285,-0.7997 2.05667,-1.5981 2.609958,-2.4598 C 18.603266,9.3274 18.86001,8.325 18.860025,7.2492 18.86001,5.7079 18.213122,4.4034 16.940056,3.4393 15.672836,2.4607 13.989528,1.9992 11.990135,1.9992 z m -1.079983,16.7998 c -0.551859,0 -1.0868426,0.1869 -1.4999757,0.6 -0.4130911,0.4132 -0.5999951,0.948 -0.5999903,1.4999 -4.8e-6,0.5445 0.1861163,1.0673 0.5999903,1.47 C 9.810842,22.7598 10.33413,23 10.910153,23 c 0.569218,0 1.079532,-0.2396 1.469977,-0.63 0.404699,-0.3939 0.629981,-0.9066 0.62999,-1.47 -9e-6,-0.5705 -0.225953,-1.0958 -0.62999,-1.4999 -0.402669,-0.4139 -0.925408,-0.6 -1.469977,-0.6 z"
       id="path2816-4" />
  </g>
</svg>
