<?xml version="1.0" encoding="UTF-8" standalone="no"?>
<!-- Created with Inkscape (http://www.inkscape.org/) -->

<svg
   xmlns:dc="http://purl.org/dc/elements/1.1/"
   xmlns:cc="http://creativecommons.org/ns#"
   xmlns:rdf="http://www.w3.org/1999/02/22-rdf-syntax-ns#"
   xmlns:svg="http://www.w3.org/2000/svg"
   xmlns="http://www.w3.org/2000/svg"
   xmlns:sodipodi="http://sodipodi.sourceforge.net/DTD/sodipodi-0.dtd"
   xmlns:inkscape="http://www.inkscape.org/namespaces/inkscape"
   width="25"
   height="25"
   id="svg2"
   version="1.1"
   inkscape:version="0.48.0 r9654"
   sodipodi:docname="menu_icon_transform_delete_checked.svg"
   inkscape:export-filename="/home/gomar/git/nookdevs/nookNotes/res/drawable/menu_icon_transform_delete_checked_pressed.png"
   inkscape:export-xdpi="90"
   inkscape:export-ydpi="90">
  <defs
     id="defs4">
    <inkscape:perspective
       sodipodi:type="inkscape:persp3d"
       inkscape:vp_x="0 : 526.18109 : 1"
       inkscape:vp_y="0 : 1000 : 0"
       inkscape:vp_z="744.09448 : 526.18109 : 1"
       inkscape:persp3d-origin="372.04724 : 350.78739 : 1"
       id="perspective10" />
    <inkscape:perspective
       id="perspective2836"
       inkscape:persp3d-origin="0.5 : 0.33333333 : 1"
       inkscape:vp_z="1 : 0.5 : 1"
       inkscape:vp_y="0 : 1000 : 0"
       inkscape:vp_x="0 : 0.5 : 1"
       sodipodi:type="inkscape:persp3d" />
    <inkscape:perspective
       id="perspective2839"
       inkscape:persp3d-origin="0.5 : 0.33333333 : 1"
       inkscape:vp_z="1 : 0.5 : 1"
       inkscape:vp_y="0 : 1000 : 0"
       inkscape:vp_x="0 : 0.5 : 1"
       sodipodi:type="inkscape:persp3d" />
    <inkscape:perspective
       id="perspective2892"
       inkscape:persp3d-origin="0.5 : 0.33333333 : 1"
       inkscape:vp_z="1 : 0.5 : 1"
       inkscape:vp_y="0 : 1000 : 0"
       inkscape:vp_x="0 : 0.5 : 1"
       sodipodi:type="inkscape:persp3d" />
  </defs>
  <sodipodi:namedview
     id="base"
     pagecolor="#ffffff"
     bordercolor="#666666"
     borderopacity="1.0"
     inkscape:pageopacity="0.0"
     inkscape:pageshadow="2"
     inkscape:zoom="15.9"
     inkscape:cx="10.620305"
     inkscape:cy="10.063884"
     inkscape:document-units="px"
     inkscape:current-layer="layer2"
     showgrid="true"
     inkscape:window-width="1280"
     inkscape:window-height="962"
     inkscape:window-x="0"
     inkscape:window-y="0"
     inkscape:window-maximized="1"
     inkscape:snap-bbox="true"
     inkscape:snap-nodes="true">
    <inkscape:grid
       type="xygrid"
       id="grid2816"
       empspacing="5"
       visible="true"
       enabled="true"
       snapvisiblegridlinesonly="true" />
  </sodipodi:namedview>
  <metadata
     id="metadata7">
    <rdf:RDF>
      <cc:Work
         rdf:about="">
        <dc:format>image/svg+xml</dc:format>
        <dc:type
           rdf:resource="http://purl.org/dc/dcmitype/StillImage" />
        <dc:title></dc:title>
      </cc:Work>
    </rdf:RDF>
  </metadata>
  <g
     inkscape:label="normal"
     inkscape:groupmode="layer"
     id="layer1"
     transform="translate(0,-1027.3622)"
     style="display:inline">
    <rect
       style="fill:none;stroke:#4d4d4d;stroke-width:1;stroke-linecap:round;stroke-linejoin:miter;stroke-miterlimit:4;stroke-opacity:1;stroke-dasharray:none;stroke-dashoffset:0"
       id="rect2819"
       width="18"
       height="18.139364"
       x="3.5"
       y="1030.8622" />
    <path
       style="font-size:medium;font-style:normal;font-variant:normal;font-weight:normal;font-stretch:normal;text-indent:0;text-align:start;text-decoration:none;line-height:normal;letter-spacing:normal;word-spacing:normal;text-transform:none;direction:ltr;block-progression:tb;writing-mode:lr-tb;text-anchor:start;color:#000000;fill:#4d4d4d;fill-opacity:1;stroke:none;stroke-width:3;marker:none;visibility:visible;display:inline;overflow:visible;enable-background:accumulate;font-family:Bitstream Vera Sans;-inkscape-font-specification:Bitstream Vera Sans"
       d="m 19.46875,1.46875 a 1.50015,1.50015 0 0 0 -1.0625,0.6875 c -2.584299,3.8206603 -4.37999,7.985609 -5.9375,12.21875 -0.146934,0.399354 -0.294395,0.786922 -0.4375,1.1875 C 10.928991,14.0836 9.7431874,12.57405 8,11.03125 7.4109514,10.507651 6.3985987,10.567202 5.875,11.15625 5.3514012,11.745299 5.4109514,12.757651 6,13.28125 c 2.2715968,2.0105 3.573754,4.0374 5.25,6.25 0.536098,0.605354 1.049818,0.574364 1.25,0.625 a 1.50015,1.50015 0 0 0 1.375,-1.0625 c 1.809523,-5.4426 3.879036,-10.66725 7,-15.28125 A 1.50015,1.50015 0 0 0 19.46875,1.46875 z"
       transform="translate(0,1027.3622)"
       id="path2847"
       inkscape:connector-curvature="0" />
    <path
       style="font-size:medium;font-style:normal;font-variant:normal;font-weight:normal;font-stretch:normal;text-indent:0;text-align:start;text-decoration:none;line-height:normal;letter-spacing:normal;word-spacing:normal;text-transform:none;direction:ltr;block-progression:tb;writing-mode:lr-tb;text-anchor:start;baseline-shift:baseline;color:#000000;fill:#394594;fill-opacity:1;stroke:none;stroke-width:2.5;marker:none;visibility:visible;display:inline;overflow:visible;enable-background:accumulate;font-family:Sans;-inkscape-font-specification:Sans"
       d="M 2.875,1.09375 1.125,2.875 10.75,12.5 1.125,22.09375 2.875,23.875 12.5,14.25 22.125,23.875 23.875,22.09375 14.25,12.5 23.875,2.875 22.125,1.09375 12.5,10.71875 2.875,1.09375 z"
       transform="translate(0,1027.3622)"
       id="path2994"
       inkscape:connector-curvature="0" />
  </g>
  <g
     inkscape:groupmode="layer"
     id="layer2"
     inkscape:label="pressed"
     style="display:none">
    <path
       style="font-size:medium;font-style:normal;font-variant:normal;font-weight:normal;font-stretch:normal;text-indent:0;text-align:start;text-decoration:none;line-height:normal;letter-spacing:normal;word-spacing:normal;text-transform:none;direction:ltr;block-progression:tb;writing-mode:lr-tb;text-anchor:start;baseline-shift:baseline;color:#000000;fill:#ffffff;fill-opacity:1;stroke:none;stroke-width:1;marker:none;visibility:visible;display:inline;overflow:visible;enable-background:accumulate;font-family:Sans;-inkscape-font-specification:Sans"
       d="M 2.875,1.09375 1.125,2.875 3,4.75 l 0,15.46875 -1.875,1.875 1.75,1.78125 1.75,-1.75 15.75,0 1.75,1.75 1.75,-1.78125 L 22,20.21875 22,4.75 23.875,2.875 22.125,1.09375 20.96875,2.25 a 1.50015,1.50015 0 0 0 -1.5,-0.78125 1.50015,1.50015 0 0 0 -1.0625,0.6875 C 18.215384,2.4384291 18.026235,2.7141762 17.84375,3 L 4.78125,3 2.875,1.09375 z M 5.78125,4 17.21875,4 c -0.811652,1.3568086 -1.520736,2.7702809 -2.1875,4.1875 L 12.5,10.71875 5.78125,4 z M 4,5.75 10.75,12.5 10.09375,13.15625 C 9.4777467,12.454691 8.8085539,11.746857 8,11.03125 7.4109514,10.507651 6.3985987,10.567202 5.875,11.15625 5.3514012,11.745299 5.4109514,12.757651 6,13.28125 c 0.7527594,0.666237 1.3800126,1.324 1.96875,2 L 4,19.21875 4,5.75 z m 17,0 0,13.46875 -5.28125,-5.25 C 16.424078,12.163568 17.204574,10.39604 18.0625,8.6875 L 21,5.75 z m -8.5,8.5 c -0.01476,0.03998 -0.01653,0.08501 -0.03125,0.125 -0.146934,0.399354 -0.294395,0.786922 -0.4375,1.1875 -0.117574,-0.157749 -0.25495,-0.3103 -0.375,-0.46875 L 12.5,14.25 z m 2.28125,2.28125 4.59375,4.59375 -13.75,0 3.90625,-3.90625 c 0.566292,0.752813 1.118209,1.519801 1.71875,2.3125 0.536098,0.605354 1.049818,0.574364 1.25,0.625 a 1.50015,1.50015 0 0 0 1.375,-1.0625 c 0.287991,-0.866206 0.601897,-1.708918 0.90625,-2.5625 z"
       id="rect2819-0"
       inkscape:connector-curvature="0" />
  </g>
</svg>
