<?xml version="1.0" encoding="UTF-8" standalone="no"?>
<!-- Created with Inkscape (http://www.inkscape.org/) -->

<svg
   xmlns:dc="http://purl.org/dc/elements/1.1/"
   xmlns:cc="http://creativecommons.org/ns#"
   xmlns:rdf="http://www.w3.org/1999/02/22-rdf-syntax-ns#"
   xmlns:svg="http://www.w3.org/2000/svg"
   xmlns="http://www.w3.org/2000/svg"
   xmlns:sodipodi="http://sodipodi.sourceforge.net/DTD/sodipodi-0.dtd"
   xmlns:inkscape="http://www.inkscape.org/namespaces/inkscape"
   width="25"
   height="25"
   id="svg2"
   version="1.1"
   inkscape:version="0.47 r22583"
   sodipodi:docname="menu_icon_transform_clear.svg"
   inkscape:export-filename="/home/gomar/git/nookdevs/nookNotes/res/drawable/menu_icon_add_transform_clear_pressed.png"
   inkscape:export-xdpi="90"
   inkscape:export-ydpi="90">
  <defs
     id="defs4">
    <inkscape:perspective
       sodipodi:type="inkscape:persp3d"
       inkscape:vp_x="0 : 526.18109 : 1"
       inkscape:vp_y="0 : 1000 : 0"
       inkscape:vp_z="744.09448 : 526.18109 : 1"
       inkscape:persp3d-origin="372.04724 : 350.78739 : 1"
       id="perspective10" />
    <inkscape:perspective
       id="perspective3037"
       inkscape:persp3d-origin="0.5 : 0.33333333 : 1"
       inkscape:vp_z="1 : 0.5 : 1"
       inkscape:vp_y="0 : 1000 : 0"
       inkscape:vp_x="0 : 0.5 : 1"
       sodipodi:type="inkscape:persp3d" />
  </defs>
  <sodipodi:namedview
     id="base"
     pagecolor="#ffffff"
     bordercolor="#666666"
     borderopacity="1.0"
     inkscape:pageopacity="0.0"
     inkscape:pageshadow="2"
     inkscape:zoom="31.8"
     inkscape:cx="8.3018868"
     inkscape:cy="12.5"
     inkscape:document-units="px"
     inkscape:current-layer="layer6"
     showgrid="true"
     inkscape:window-width="1860"
     inkscape:window-height="1057"
     inkscape:window-x="60"
     inkscape:window-y="0"
     inkscape:window-maximized="1"
     inkscape:snap-bbox="true"
     inkscape:snap-nodes="true">
    <inkscape:grid
       type="xygrid"
       id="grid2816"
       empspacing="5"
       visible="true"
       enabled="true"
       snapvisiblegridlinesonly="true" />
  </sodipodi:namedview>
  <metadata
     id="metadata7">
    <rdf:RDF>
      <cc:Work
         rdf:about="">
        <dc:format>image/svg+xml</dc:format>
        <dc:type
           rdf:resource="http://purl.org/dc/dcmitype/StillImage" />
        <dc:title></dc:title>
      </cc:Work>
    </rdf:RDF>
  </metadata>
  <g
     inkscape:label="normal"
     inkscape:groupmode="layer"
     id="layer1"
     transform="translate(0,-1027.3622)"
     style="display:inline">
    <path
       id="path3615"
       d="m 5.078947,1032.3622 15,0"
       style="fill:none;stroke:#333333;stroke-width:1.99999976;stroke-linecap:square;stroke-linejoin:miter;stroke-miterlimit:4;stroke-opacity:1;stroke-dasharray:none" />
    <path
       id="path3619"
       d="m 5.1184207,1044.3622 14.9210523,0"
       style="fill:none;stroke:#333333;stroke-width:1.99999976;stroke-linecap:square;stroke-linejoin:miter;stroke-miterlimit:4;stroke-opacity:1;stroke-dasharray:none" />
    <path
       style="fill:none;stroke:#333333;stroke-width:1.99999976;stroke-linecap:square;stroke-linejoin:miter;stroke-miterlimit:4;stroke-opacity:1;stroke-dasharray:none"
       d="m 5.1184207,1048.3622 14.9210523,0"
       id="path3621" />
    <path
       style="fill:none;stroke:#333333;stroke-width:1.99999976;stroke-linecap:square;stroke-linejoin:miter;stroke-miterlimit:4;stroke-opacity:1;stroke-dasharray:none"
       d="m 5.1184207,1040.3622 14.9210523,0"
       id="path2819" />
    <path
       id="path2821"
       d="m 5.078947,1036.3622 14.921053,0"
       style="fill:none;stroke:#333333;stroke-width:1.99999976;stroke-linecap:square;stroke-linejoin:miter;stroke-miterlimit:4;stroke-opacity:1;stroke-dasharray:none" />
    <path
       style="fill:none;stroke:#394594;stroke-width:3;stroke-linecap:round;stroke-linejoin:round;stroke-miterlimit:4;stroke-opacity:1;stroke-dasharray:none"
       d="M 3,3 22,23"
       id="path2825"
       transform="translate(0,1027.3622)"
       sodipodi:nodetypes="cc" />
    <path
       style="fill:none;stroke:#394594;stroke-width:3;stroke-linecap:round;stroke-linejoin:round;stroke-miterlimit:4;stroke-opacity:1;stroke-dasharray:none"
       d="M 22,3 3,23"
       id="path2827"
       transform="translate(0,1027.3622)"
       sodipodi:nodetypes="cc" />
  </g>
  <g
     inkscape:groupmode="layer"
     id="layer6"
     inkscape:label="pressed"
     style="display:none">
    <path
       style="font-size:medium;font-style:normal;font-variant:normal;font-weight:normal;font-stretch:normal;text-indent:0;text-align:start;text-decoration:none;line-height:normal;letter-spacing:normal;word-spacing:normal;text-transform:none;direction:ltr;block-progression:tb;writing-mode:lr-tb;text-anchor:start;color:#000000;fill:#ffffff;fill-opacity:1;stroke:none;stroke-width:1.99999976;marker:none;visibility:visible;display:inline;overflow:visible;enable-background:accumulate;font-family:Bitstream Vera Sans;-inkscape-font-specification:Bitstream Vera Sans"
       d="M 2.875,1.46875 A 1.50015,1.50015 0 0 0 2.71875,1.5 1.50015,1.50015 0 0 0 1.90625,4.03125 L 5.6875,8 5.09375,8 l -1,0 0,2 1,0 2.5,0 1.90625,2 -4.375,0 -1,0 0,2 1,0 4.375,0 -1.90625,2 -2.46875,0 -1,0 0,2 1,0 0.5625,0 -3.78125,3.96875 a 1.5032517,1.5032517 0 1 0 2.1875,2.0625 L 6.03125,22 l 12.9375,0 1.9375,2.03125 a 1.5032517,1.5032517 0 1 0 2.1875,-2.0625 L 19.3125,18 l 0.71875,0 1,0 0,-2 -1,0 -2.625,0 -1.90625,-2 4.53125,0 1,0 0,-2 -1,0 L 15.5,12 17.40625,10 20,10 21,10 21,8 20,8 19.3125,8 23.09375,4.03125 A 1.50015,1.50015 0 0 0 21.78125,1.5 1.50015,1.50015 0 0 0 20.90625,1.96875 L 18.96875,4 6.03125,4 4.09375,1.96875 A 1.50015,1.50015 0 0 0 2.875,1.46875 z M 7.90625,6 17.09375,6 15.1875,8 9.8125,8 7.90625,6 z m 3.8125,4 1.5625,0 L 12.5,10.8125 11.71875,10 z M 12.5,15.1875 13.28125,16 11.71875,16 12.5,15.1875 z M 9.84375,18 l 5.3125,0 1.90625,2 -9.125,0 1.90625,-2 z"
       id="path3615-8" />
  </g>
</svg>
